#N canvas 516 221 687 478 10;
#X obj 142 21 inlet;
#X text 185 21 new note from midifile;
#X text 423 14 tracked pitch;
#X obj 469 63 f;
#X obj 470 88 +;
#X msg 502 59 0;
#X obj 504 150 int;
#X obj 532 149 + 1;
#X msg 525 118 0;
#X obj 468 205 /;
#X text 386 205 running avg.;
#X obj 469 120 t f f b;
#X obj 509 177 t f f;
#X obj 194 325 int;
#X obj 229 325 + 1;
#X msg 317 283 0;
#X obj 228 351 t f f;
#X obj 155 185 -;
#X obj 155 210 abs;
#X obj 199 227 r tolerance;
#X obj 155 264 +;
#X obj 154 289 t f f;
#X obj 143 332 f;
#X msg 194 264 0;
#X obj 142 361 /;
#X floatatom 210 162 5 0 0 0 - - -, f 5;
#X obj 242 99 f;
#X obj 274 263 bng 15 250 50 0 empty empty empty 17 7 0 10 -262144
-1 -1;
#X obj 339 12 inlet;
#X obj 180 422 f;
#X obj 179 447 outlet;
#X obj 301 245 r midi-play;
#N canvas 1 103 450 300 fmod 0;
#X obj 109 27 inlet;
#X obj 109 55 + 120;
#X obj 117 248 outlet;
#X obj 221 148 -;
#X obj 279 78 r tolerance;
#X obj 278 100 t b f;
#X msg 221 125 12;
#X obj 169 178 moses;
#X obj 191 200 - 12;
#X msg 370 62 0.6;
#X obj 106 83 j-fmod 12;
#X connect 0 0 1 0;
#X connect 1 0 10 0;
#X connect 3 0 7 1;
#X connect 4 0 5 0;
#X connect 5 0 6 0;
#X connect 5 1 3 1;
#X connect 6 0 3 0;
#X connect 7 0 2 0;
#X connect 7 1 8 0;
#X connect 8 0 2 0;
#X connect 9 0 5 0;
#X connect 10 0 7 0;
#X restore 229 131 pd fmod;
#N canvas 1 103 450 300 fmod 0;
#X obj 109 27 inlet;
#X obj 109 55 + 120;
#X obj 117 248 outlet;
#X obj 221 148 -;
#X obj 279 78 r tolerance;
#X obj 278 100 t b f;
#X msg 221 125 12;
#X obj 169 178 moses;
#X obj 191 200 - 12;
#X msg 370 62 0.6;
#X obj 106 83 j-fmod 12;
#X connect 0 0 1 0;
#X connect 1 0 10 0;
#X connect 3 0 7 1;
#X connect 4 0 5 0;
#X connect 5 0 6 0;
#X connect 5 1 3 1;
#X connect 6 0 3 0;
#X connect 7 0 2 0;
#X connect 7 1 8 0;
#X connect 8 0 2 0;
#X connect 9 0 5 0;
#X connect 10 0 7 0;
#X restore 140 125 pd fmod;
#X obj 31 23 inlet;
#X text 47 44 note off;
#X obj 73 60 t b b b b;
#X obj 389 319 pack f f f f;
#X obj 390 367 print;
#X msg 390 343 target: \$3 actual: \$4 diff: \$2 points: \$1;
#X obj 140 156 f;
#X obj 20 99 sel 0;
#X obj 20 67 change;
#X obj 154 233 < 0.9;
#X obj 241 60 t f b b b;
#X obj 518 14 r tracked-pitch;
#X connect 0 0 44 0;
#X connect 3 0 4 0;
#X connect 4 0 11 0;
#X connect 5 0 4 1;
#X connect 6 0 7 0;
#X connect 7 0 12 0;
#X connect 8 0 6 1;
#X connect 9 0 26 1;
#X connect 11 0 9 0;
#X connect 11 1 4 1;
#X connect 11 2 6 0;
#X connect 12 0 6 1;
#X connect 12 1 9 1;
#X connect 13 0 14 0;
#X connect 14 0 16 0;
#X connect 15 0 13 1;
#X connect 16 0 13 1;
#X connect 16 1 24 1;
#X connect 17 0 18 0;
#X connect 18 0 37 1;
#X connect 18 0 43 0;
#X connect 19 0 43 1;
#X connect 20 0 21 0;
#X connect 21 0 22 1;
#X connect 21 1 20 1;
#X connect 22 0 24 0;
#X connect 23 0 20 1;
#X connect 24 0 29 1;
#X connect 25 0 17 1;
#X connect 26 0 32 0;
#X connect 27 0 23 0;
#X connect 27 0 15 0;
#X connect 28 0 29 0;
#X connect 29 0 30 0;
#X connect 31 0 27 0;
#X connect 32 0 25 0;
#X connect 32 0 37 3;
#X connect 33 0 37 2;
#X connect 33 0 40 1;
#X connect 34 0 42 0;
#X connect 36 0 13 0;
#X connect 36 1 40 0;
#X connect 36 2 26 0;
#X connect 36 3 22 0;
#X connect 37 0 39 0;
#X connect 40 0 17 0;
#X connect 41 0 36 0;
#X connect 42 0 41 0;
#X connect 43 0 20 0;
#X connect 43 0 37 0;
#X connect 44 0 33 0;
#X connect 44 1 5 0;
#X connect 44 2 8 0;
#X connect 45 0 3 0;
