#N canvas 306 286 578 459 10;
#X obj 252 158 metro 1000;
#X msg 306 120 0;
#X msg 254 125 1;
#X obj 135 64 key;
#X obj 103 203 - 4000;
#X obj 184 265 list prepend;
#X msg 260 236 list;
#X obj 185 296 t l l;
#X obj 166 328 list;
#X obj 246 13 inlet;
#X obj 388 7 inlet;
#X obj 183 146 *;
#X obj 168 357 outlet;
#X obj 449 373 outlet;
#X text 15 10 left inlet: countin;
#X text 26 26 middle inlet: tempo (ms);
#X obj 304 15 inlet;
#X obj 301 43 t f f, f 6;
#X obj 328 202 int;
#X obj 357 203 + 1;
#X obj 384 204 t f f;
#X obj 135 87 sel 32;
#X obj 103 180 timer;
#X obj 374 229 >= 99;
#X text 16 43 right inlet: number of note events;
#X msg 340 169 0;
#X obj 376 257 sel 1;
#X obj 462 21 inlet;
#X text 503 22 halt metronome;
#X obj 367 319 int;
#X obj 395 319 + 1;
#X obj 422 320 % 4;
#X obj 450 320 t f f;
#X obj 450 347 + 1;
#X obj 246 37 unpack;
#X msg 382 285 -1;
#X obj 423 71 t b b b;
#X obj 107 126 spigot 0;
#X msg 60 105 1;
#X obj 251 82 t b b b f b b b;
#X msg 27 103 0;
#X obj 109 150 t b b b;
#X obj 174 203 s rhy-count-label;
#X connect 0 0 29 0;
#X connect 1 0 0 0;
#X connect 2 0 0 0;
#X connect 3 0 21 0;
#X connect 4 0 5 0;
#X connect 5 0 7 0;
#X connect 6 0 5 1;
#X connect 7 0 8 1;
#X connect 7 1 5 1;
#X connect 8 0 12 0;
#X connect 9 0 34 0;
#X connect 10 0 23 1;
#X connect 11 0 4 1;
#X connect 16 0 17 0;
#X connect 17 0 11 1;
#X connect 17 1 0 1;
#X connect 18 0 19 0;
#X connect 19 0 20 0;
#X connect 20 0 23 0;
#X connect 20 1 18 1;
#X connect 21 0 37 0;
#X connect 22 0 4 0;
#X connect 23 0 26 0;
#X connect 25 0 18 1;
#X connect 26 0 36 0;
#X connect 27 0 1 0;
#X connect 29 0 30 0;
#X connect 30 0 31 0;
#X connect 31 0 32 0;
#X connect 32 0 33 0;
#X connect 32 1 29 1;
#X connect 33 0 13 0;
#X connect 34 0 39 0;
#X connect 34 1 31 1;
#X connect 35 0 29 1;
#X connect 36 0 8 0;
#X connect 36 1 1 0;
#X connect 36 2 40 0;
#X connect 37 0 41 0;
#X connect 38 0 37 1;
#X connect 39 0 22 0;
#X connect 39 1 2 0;
#X connect 39 2 6 0;
#X connect 39 3 11 0;
#X connect 39 4 25 0;
#X connect 39 5 35 0;
#X connect 39 6 38 0;
#X connect 40 0 37 1;
#X connect 41 0 18 0;
#X connect 41 1 22 1;
#X connect 41 2 42 0;
