#N canvas 330 231 1110 669 10;
#X declare -path .;
#X obj 304 231 midifile;
#X msg 732 149 verbose 0;
#X obj 39 346 unpack f f;
#X msg 198 115 1;
#X msg 373 46 60000;
#X obj 373 69 / 60;
#X floatatom 373 4 5 0 0 0 - - -, f 5;
#X obj 373 23 t b f;
#X obj 402 144 *;
#X obj 39 317 route 144 128;
#X msg 109 346 0;
#X text 31 445 pitch;
#X text 109 484 note on/off;
#X obj 437 265 route bang;
#X obj 22 151 until;
#N canvas 1 83 774 428 preprocess-midi 0;
#X obj 69 24 inlet;
#X obj 244 58 inlet;
#X obj 69 79 unpack f f;
#X obj 69 51 route 144 128;
#X obj 69 145 spigot 0;
#X msg 128 146 0;
#X msg 162 146 1;
#X obj 69 170 moses 1;
#X obj 108 196 t f b;
#X obj 319 59 inlet;
#X obj 108 223 outlet;
#X text 316 32 bang to prep;
#X floatatom 239 143 5 0 0 0 - - -, f 5;
#X obj 331 142 unpack;
#X obj 336 199 t b f;
#X obj 331 171 moses 1;
#X obj 240 114 route ticks_per_quarternote end bang time_sig;
#X obj 219 170 t f f;
#N canvas 1 83 615 383 meter-calculation 0;
#X obj 113 31 inlet;
#X text 156 31 midifile meter list;
#X msg 286 225 4;
#X obj 293 252 /;
#X obj 113 68 route 6 9 12 15 18 21 24;
#X obj 263 167 unpack f f f f;
#X obj 118 167 unpack f f f;
#X obj 127 257 /;
#X msg 120 230 8;
#X obj 129 287 * 1.5;
#X obj 215 344 outlet;
#X obj 288 199 t b f f;
#X obj 327 228 s meter-from-file;
#X obj 122 204 t b f;
#X msg 438 56 2;
#X msg 439 78 3;
#X msg 440 101 4;
#X msg 441 123 5;
#X msg 441 145 6;
#X msg 442 168 7;
#X msg 443 190 8;
#X connect 0 0 4 0;
#X connect 2 0 3 0;
#X connect 3 0 10 0;
#X connect 4 0 6 0;
#X connect 4 0 14 0;
#X connect 4 1 6 0;
#X connect 4 1 15 0;
#X connect 4 2 6 0;
#X connect 4 2 16 0;
#X connect 4 3 6 0;
#X connect 4 3 17 0;
#X connect 4 4 6 0;
#X connect 4 4 18 0;
#X connect 4 5 6 0;
#X connect 4 5 19 0;
#X connect 4 6 6 0;
#X connect 4 6 20 0;
#X connect 4 7 5 0;
#X connect 5 0 12 0;
#X connect 5 1 11 0;
#X connect 6 0 13 0;
#X connect 7 0 9 0;
#X connect 8 0 7 0;
#X connect 9 0 10 0;
#X connect 11 0 2 0;
#X connect 11 1 3 1;
#X connect 13 0 8 0;
#X connect 13 1 7 1;
#X connect 14 0 12 0;
#X connect 15 0 12 0;
#X connect 16 0 12 0;
#X connect 17 0 12 0;
#X connect 18 0 12 0;
#X connect 19 0 12 0;
#X connect 20 0 12 0;
#X restore 440 144 pd meter-calculation;
#X obj 41 223 outlet;
#X text 37 246 finished;
#X text 107 254 first note;
#X obj 214 209 outlet;
#X text 214 237 ticks/Q;
#X text 207 258 (always 384?);
#X obj 338 344 outlet;
#X obj 440 174 outlet;
#X text 436 200 click tempo multiplier;
#X obj 69 108 t f f;
#X obj 71 305 change 0;
#X msg 71 328 bang;
#X obj 71 353 int;
#X obj 98 354 + 1;
#X obj 151 309 t f f;
#X floatatom 73 379 5 0 0 0 - - -, f 5;
#X msg 150 283 1;
#X text 72 397 num notes;
#X text 334 292 length in ticks;
#X obj 658 318 outlet;
#X connect 0 0 3 0;
#X connect 1 0 16 0;
#X connect 2 0 28 0;
#X connect 3 0 2 0;
#X connect 4 0 7 0;
#X connect 5 0 4 1;
#X connect 6 0 4 1;
#X connect 7 1 8 0;
#X connect 8 0 10 0;
#X connect 8 1 5 0;
#X connect 9 0 6 0;
#X connect 9 0 35 0;
#X connect 12 0 17 0;
#X connect 13 1 15 0;
#X connect 14 1 25 0;
#X connect 15 1 14 0;
#X connect 16 0 12 0;
#X connect 16 1 13 0;
#X connect 16 2 19 0;
#X connect 16 3 18 0;
#X connect 17 0 22 0;
#X connect 18 0 26 0;
#X connect 28 0 29 0;
#X connect 28 1 4 0;
#X connect 29 0 30 0;
#X connect 30 0 31 0;
#X connect 31 0 32 0;
#X connect 31 0 34 0;
#X connect 32 0 31 1;
#X connect 33 0 31 0;
#X connect 33 1 29 0;
#X connect 34 0 38 0;
#X connect 35 0 33 0;
#X restore 304 302 pd preprocess-midi;
#X floatatom 383 390 5 0 0 0 - - -, f 5;
#X obj 732 125 loadbang;
#X msg 196 34 rewind;
#X msg 393 185 0;
#X obj 394 212 t f f;
#X obj 373 91 t f f;
#X obj 409 332 s tempo-multiplier;
#X obj 428 91 r tempo-multiplier;
#X obj 356 354 s ticks-per-q;
#X obj 260 64 r ticks-per-q;
#X obj 233 89 / 384;
#X msg 198 90 0;
#X obj 5 7 inlet;
#X text 300 5 tempo bpm;
#X obj 400 120 f;
#X obj 428 120 t b f;
#X obj 279 354 s firstnote;
#X obj 34 472 outlet;
#X obj 440 425 outlet;
#X obj 2 31 route play stop;
#X obj 417 4 inlet;
#X obj 114 465 outlet;
#X msg 424 185 1;
#X obj 158 13 t b b;
#X obj 341 424 outlet;
#X text 336 446 click tempo;
#X text 337 465 in ms;
#X obj 197 153 latido_delaymetro;
#X obj 35 421 spigot 0;
#X obj 81 400 != 0;
#X obj 72 371 t f f;
#X text 125 401 only send pitch if vel>0;
#X msg 114 221 \; current-audio const 0 \; current-synth const 0;
#X obj 668 223 int;
#X obj 640 510 tabwrite target-melody;
#X obj 621 392 f;
#X obj 640 482 f;
#X obj 668 248 t b b f f;
#X obj 621 418 tabwrite player-melody;
#X obj 388 414 / 32;
#X obj 670 195 / 32;
#X obj 643 46 declare -path .;
#X obj 17 69 t b b s b b b;
#X msg 46 123 read \$1;
#X obj 47 101 symbol;
#X obj 304 265 j-gate3;
#X obj 369 265 j-gate3;
#X obj 611 332 rhythm-gate 0;
#X obj 641 452 rhythm-gate 0;
#X obj 634 365 r tracked-pitch;
#X msg 844 503 \; player-rhythm resize \$1 \; target-rhythm resize
\$1 \; player-rhythm const 0 \; target-rhythm const 0;
#X msg 392 517 \; player-melody resize \$1 \; player-melody const 0
\; target-melody resize \$1 \; target-melody const 0;
#X connect 0 0 61 0;
#X connect 0 1 56 0;
#X connect 0 2 62 0;
#X connect 1 0 0 0;
#X connect 2 0 44 0;
#X connect 2 1 46 0;
#X connect 3 0 43 0;
#X connect 4 0 5 0;
#X connect 5 0 21 0;
#X connect 6 0 7 0;
#X connect 7 0 4 0;
#X connect 7 1 5 1;
#X connect 8 0 40 0;
#X connect 9 0 2 0;
#X connect 9 1 10 0;
#X connect 10 0 37 0;
#X connect 13 0 34 0;
#X connect 13 0 27 0;
#X connect 14 0 0 0;
#X connect 15 0 14 1;
#X connect 15 1 32 0;
#X connect 15 2 24 0;
#X connect 15 3 16 0;
#X connect 15 4 22 0;
#X connect 15 5 66 0;
#X connect 16 0 55 0;
#X connect 17 0 1 0;
#X connect 18 0 0 0;
#X connect 19 0 20 0;
#X connect 20 0 61 1;
#X connect 20 1 62 1;
#X connect 21 0 26 0;
#X connect 21 1 30 0;
#X connect 23 0 31 0;
#X connect 25 0 26 1;
#X connect 26 0 43 1;
#X connect 27 0 43 0;
#X connect 28 0 35 0;
#X connect 30 0 8 0;
#X connect 31 0 30 0;
#X connect 31 1 8 1;
#X connect 35 0 39 0;
#X connect 35 1 27 0;
#X connect 35 2 58 0;
#X connect 36 0 6 0;
#X connect 38 0 20 0;
#X connect 39 0 3 0;
#X connect 39 1 18 0;
#X connect 43 0 0 0;
#X connect 44 0 33 0;
#X connect 44 0 52 1;
#X connect 45 0 44 1;
#X connect 46 0 37 0;
#X connect 46 1 45 0;
#X connect 49 0 53 0;
#X connect 51 0 54 0;
#X connect 52 0 50 0;
#X connect 53 0 63 0;
#X connect 53 1 64 0;
#X connect 53 2 54 1;
#X connect 53 3 50 1;
#X connect 55 0 67 0;
#X connect 56 0 49 0;
#X connect 58 0 38 0;
#X connect 58 1 14 0;
#X connect 58 2 60 0;
#X connect 58 3 19 0;
#X connect 58 4 15 2;
#X connect 58 5 48 0;
#X connect 59 0 0 0;
#X connect 60 0 59 0;
#X connect 61 0 15 0;
#X connect 61 1 9 0;
#X connect 62 0 15 1;
#X connect 62 1 13 0;
#X connect 63 0 51 0;
#X connect 64 0 52 0;
#X connect 65 0 51 1;
