#N canvas 113 220 1110 669 10;
#X declare -path .;
#X obj 311 294 midifile;
#X msg 736 218 verbose 0;
#X obj 43 415 unpack f f;
#X msg 607 82 1;
#X msg 377 115 60000;
#X obj 377 138 / 60;
#X floatatom 377 73 5 0 0 0 - - -, f 5;
#X obj 377 92 t b f;
#X obj 43 386 route 144 128;
#X msg 163 503 0;
#X text 39 550 pitch;
#X obj 641 57 route bang;
#X obj 36 224 until;
#N canvas 281 363 764 529 preprocess-midi 0;
#X obj 69 72 inlet;
#X obj 240 59 inlet;
#X obj 69 120 unpack f f;
#X obj 69 145 spigot 0;
#X msg 133 146 0;
#X msg 162 146 1;
#X obj 69 170 moses 1;
#X obj 108 196 t f b;
#X obj 319 59 inlet;
#X obj 108 223 outlet;
#X text 316 32 bang to prep;
#X floatatom 239 143 5 0 0 0 - - -, f 5;
#X obj 331 142 unpack;
#X obj 331 171 moses 1;
#X obj 240 114 route ticks_per_quarternote end bang time_sig;
#X obj 219 170 t f f;
#N canvas 0 108 615 383 meter-calculation 0;
#X obj 113 31 inlet;
#X text 156 31 midifile meter list;
#X obj 113 68 route 6 9 12 15 18 21 24;
#X obj 254 167 unpack f f f f;
#X obj 118 167 unpack f f f;
#X obj 118 247 /;
#X msg 118 220 8;
#X obj 181 299 outlet;
#X obj 327 228 s meter-from-file;
#X msg 438 56 2;
#X msg 439 78 3;
#X msg 440 101 4;
#X msg 441 123 5;
#X msg 441 145 6;
#X msg 442 168 7;
#X msg 443 190 8;
#X obj 281 199 t b f b;
#X obj 118 194 t b f;
#X obj 118 272 / 1.5;
#X floatatom 299 303 5 0 0 0 - - -, f 5;
#X obj 281 252 / 4;
#X connect 0 0 2 0;
#X connect 2 0 4 0;
#X connect 2 0 9 0;
#X connect 2 1 4 0;
#X connect 2 1 10 0;
#X connect 2 2 4 0;
#X connect 2 2 11 0;
#X connect 2 3 4 0;
#X connect 2 3 12 0;
#X connect 2 4 4 0;
#X connect 2 4 13 0;
#X connect 2 5 4 0;
#X connect 2 5 14 0;
#X connect 2 6 4 0;
#X connect 2 6 15 0;
#X connect 2 7 3 0;
#X connect 3 0 8 0;
#X connect 3 1 16 0;
#X connect 4 0 17 0;
#X connect 5 0 18 0;
#X connect 6 0 5 0;
#X connect 9 0 8 0;
#X connect 10 0 8 0;
#X connect 11 0 8 0;
#X connect 12 0 8 0;
#X connect 13 0 8 0;
#X connect 14 0 8 0;
#X connect 15 0 8 0;
#X connect 16 1 20 0;
#X connect 17 0 6 0;
#X connect 17 1 5 1;
#X connect 18 0 7 0;
#X connect 20 0 7 0;
#X connect 20 0 19 0;
#X restore 440 144 pd meter-calculation;
#X obj 22 226 outlet;
#X text 18 249 finished;
#X text 107 254 first note;
#X obj 214 209 outlet;
#X text 214 237 ticks/Q;
#X text 207 258 (always 384?);
#X obj 345 210 outlet;
#X obj 440 174 outlet;
#X text 436 200 click tempo multiplier;
#X obj 626 282 int;
#X obj 653 283 + 1;
#X floatatom 628 308 5 0 0 0 - - -, f 5;
#X msg 683 212 1;
#X text 635 326 num notes;
#X text 327 233 length in ticks;
#X obj 628 349 outlet;
#X obj 69 96 route 144;
#X obj 631 213 > 0;
#X obj 629 234 sel 1;
#X connect 0 0 33 0;
#X connect 1 0 14 0;
#X connect 2 0 3 0;
#X connect 2 1 34 0;
#X connect 3 0 6 0;
#X connect 4 0 3 1;
#X connect 5 0 3 1;
#X connect 6 1 7 0;
#X connect 7 0 9 0;
#X connect 7 1 4 0;
#X connect 8 0 5 0;
#X connect 8 0 29 0;
#X connect 11 0 15 0;
#X connect 12 1 13 0;
#X connect 13 1 23 0;
#X connect 14 0 11 0;
#X connect 14 1 12 0;
#X connect 14 2 17 0;
#X connect 14 3 16 0;
#X connect 15 0 20 0;
#X connect 16 0 24 0;
#X connect 26 0 27 0;
#X connect 26 0 28 0;
#X connect 27 0 26 1;
#X connect 28 0 32 0;
#X connect 29 0 26 1;
#X connect 33 0 2 0;
#X connect 34 0 35 0;
#X connect 35 0 26 0;
#X restore 308 371 pd preprocess-midi;
#X obj 736 194 loadbang;
#X msg 308 261 rewind;
#X msg 397 254 0;
#X obj 377 160 t f f;
#X obj 413 401 s tempo-multiplier;
#X obj 432 160 r tempo-multiplier;
#X obj 360 423 s ticks-per-q;
#X obj 746 67 r ticks-per-q;
#X obj 719 88 / 384;
#X msg 640 82 0;
#X obj 6 77 inlet;
#X text 304 74 tempo bpm;
#X obj 404 189 f;
#X obj 432 189 t b f;
#X obj 283 423 s firstnote;
#X obj 42 577 outlet;
#X obj 444 494 outlet;
#X obj 6 100 route play stop;
#X obj 377 51 inlet;
#X obj 163 576 outlet;
#X msg 428 254 1;
#X obj 162 82 t b b;
#X obj 348 493 outlet;
#X text 324 517 click tempo;
#X text 344 534 in ms;
#X obj 620 110 latido_delaymetro;
#X obj 43 526 spigot 0;
#X text 114 468 only send pitch if vel>0;
#X msg 97 293 \; current-audio const 0 \; current-synth const 0;
#X obj 627 594 tabwrite target-melody;
#X obj 625 461 f;
#X obj 627 571 f;
#X obj 662 369 t b b f f;
#X obj 625 486 tabwrite player-melody;
#X obj 907 191 / 32;
#X obj 906 300 declare -path .;
#X obj 21 138 t b b s b b b;
#X msg 51 192 read \$1;
#X obj 51 170 symbol;
#X obj 625 412 rhythm-gate 0;
#X obj 627 547 rhythm-gate 0;
#X obj 640 436 r tracked-pitch;
#X msg 903 107 \; player-rhythm resize \$1 \; target-rhythm resize
\$1 \; player-rhythm const 0 \; target-rhythm const 0;
#X msg 907 214 \; player-melody resize \$1 \; player-melody const 0
\; target-melody resize \$1 \; target-melody const 0;
#X obj 83 468 > 0;
#X obj 83 491 t f f;
#X obj 668 282 t f f;
#X obj 695 303 % 32;
#X obj 695 325 == 16;
#X obj 662 347 spigot;
#X obj 308 334 j-gate2;
#X obj 373 334 j-gate2;
#X obj 457 424 s num-notes;
#X obj 903 83 r num-notes;
#X text 447 515 done;
#X obj 163 528 change;
#X obj 163 552 sel 0;
#X text 163 604 note off;
#X obj 406 213 *;
#X obj 632 257 j-gate2;
#X obj 398 281 t f f f;
#X connect 0 0 64 0;
#X connect 0 1 73 0;
#X connect 0 2 65 0;
#X connect 1 0 0 0;
#X connect 2 0 40 0;
#X connect 2 1 58 0;
#X connect 3 0 39 0;
#X connect 4 0 5 0;
#X connect 5 0 17 0;
#X connect 6 0 7 0;
#X connect 7 0 4 0;
#X connect 7 1 5 1;
#X connect 8 0 2 0;
#X connect 8 1 9 0;
#X connect 9 0 69 0;
#X connect 11 0 30 0;
#X connect 11 0 23 0;
#X connect 12 0 0 0;
#X connect 13 0 12 1;
#X connect 13 1 28 0;
#X connect 13 2 20 0;
#X connect 13 3 48 0;
#X connect 13 4 18 0;
#X connect 13 5 66 0;
#X connect 14 0 1 0;
#X connect 15 0 0 0;
#X connect 16 0 74 0;
#X connect 17 0 36 0;
#X connect 17 1 26 0;
#X connect 19 0 27 0;
#X connect 21 0 22 1;
#X connect 22 0 39 1;
#X connect 23 0 39 0;
#X connect 24 0 31 0;
#X connect 26 0 72 0;
#X connect 27 0 26 0;
#X connect 27 1 72 1;
#X connect 31 0 35 0;
#X connect 31 1 23 0;
#X connect 31 2 50 0;
#X connect 32 0 6 0;
#X connect 34 0 74 0;
#X connect 35 0 3 0;
#X connect 35 1 15 0;
#X connect 39 0 0 0;
#X connect 40 0 29 0;
#X connect 40 0 45 1;
#X connect 44 0 47 0;
#X connect 45 0 43 0;
#X connect 46 0 53 0;
#X connect 46 1 54 0;
#X connect 46 2 47 1;
#X connect 46 3 43 1;
#X connect 48 0 57 0;
#X connect 50 0 34 0;
#X connect 50 1 12 0;
#X connect 50 2 52 0;
#X connect 50 3 16 0;
#X connect 50 4 13 2;
#X connect 50 5 42 0;
#X connect 51 0 0 0;
#X connect 52 0 51 0;
#X connect 53 0 44 0;
#X connect 54 0 45 0;
#X connect 55 0 44 1;
#X connect 58 0 59 0;
#X connect 59 0 69 0;
#X connect 59 1 40 1;
#X connect 60 0 63 0;
#X connect 60 1 61 0;
#X connect 61 0 62 0;
#X connect 62 0 63 1;
#X connect 63 0 46 0;
#X connect 64 0 13 0;
#X connect 64 1 8 0;
#X connect 65 0 13 1;
#X connect 65 1 11 0;
#X connect 67 0 56 0;
#X connect 69 0 70 0;
#X connect 70 0 33 0;
#X connect 72 0 22 0;
#X connect 73 1 60 0;
#X connect 74 0 64 1;
#X connect 74 1 65 1;
#X connect 74 2 73 1;
