#N canvas 354 248 529 240 10;
#X obj 262 12 inlet;
#X text 299 11 midi note;
#X text 199 31 user note;
#X obj 193 13 inlet;
#X obj 379 9 inlet;
#X text 416 9 number of notes;
#X obj 79 17 inlet;
#X text 75 37 bang when finished;
#N canvas 555 193 545 587 rhythm-scoring 0;
#X obj 397 39 inlet;
#X obj 150 23 inlet;
#X text 433 39 num notes;
#X obj 149 82 f 1;
#X obj 148 112 until;
#X obj 148 164 int;
#X obj 148 192 t f f;
#X obj 189 192 + 1;
#X obj 167 273 t f f;
#X obj 190 383 -;
#X obj 189 413 abs;
#X obj 245 410 r rhythm-tolerance;
#X obj 189 465 +;
#X msg 222 439 0;
#X msg 201 109 0;
#X obj 174 533 /;
#X obj 397 64 t f f;
#X obj 150 52 t b b b b;
#X obj 175 558 outlet;
#X obj 188 490 t f f;
#X obj 174 512 f;
#X obj 86 321 tabread player-rhythm;
#X obj 283 337 tabread target-rhythm;
#X obj 189 438 < 55;
#X obj 104 36 bng 15 250 50 0 empty empty empty 17 7 0 10 -262144 -1
-1;
#X connect 0 0 16 0;
#X connect 1 0 17 0;
#X connect 3 0 4 0;
#X connect 4 0 5 0;
#X connect 5 0 6 0;
#X connect 6 0 8 0;
#X connect 6 1 7 0;
#X connect 7 0 5 1;
#X connect 8 0 21 0;
#X connect 8 1 22 0;
#X connect 9 0 10 0;
#X connect 10 0 23 0;
#X connect 11 0 23 1;
#X connect 12 0 19 0;
#X connect 13 0 12 1;
#X connect 14 0 5 1;
#X connect 15 0 18 0;
#X connect 16 0 3 1;
#X connect 16 1 15 1;
#X connect 17 0 20 0;
#X connect 17 1 3 0;
#X connect 17 2 13 0;
#X connect 17 3 14 0;
#X connect 19 0 20 1;
#X connect 19 1 12 1;
#X connect 20 0 15 0;
#X connect 21 0 9 0;
#X connect 22 0 9 1;
#X connect 23 0 12 0;
#X connect 24 0 17 0;
#X restore 210 166 pd rhythm-scoring;
#X obj 210 200 outlet;
#X obj 193 118 rhy-timer player-rhythm;
#X obj 262 90 rhy-timer target-rhythm;
#X obj 440 38 inlet;
#X text 450 59 reset;
#X obj 379 37 t b b f;
#X connect 0 0 11 0;
#X connect 3 0 10 0;
#X connect 4 0 14 0;
#X connect 6 0 8 0;
#X connect 8 0 9 0;
#X connect 12 0 11 1;
#X connect 12 0 10 1;
#X connect 14 0 10 1;
#X connect 14 1 11 1;
#X connect 14 2 8 1;
