#N canvas 486 222 997 482 10;
#X obj 568 56 inlet;
#X text 616 54 midi note;
#X text 189 62 user note;
#X obj 191 78 inlet;
#X obj 782 23 inlet;
#X text 817 24 number of notes;
#X obj 42 67 inlet;
#X text 40 49 bang when finished;
#N canvas 503 383 611 587 rhythm-scoring 0;
#X obj 398 39 inlet;
#X obj 150 23 inlet;
#X text 434 39 num notes;
#X obj 149 82 f 1;
#X obj 148 112 until;
#X obj 148 164 int;
#X obj 148 192 t f f;
#X obj 189 192 + 1;
#X obj 167 273 t f f;
#X obj 190 383 -;
#X obj 189 413 abs;
#X obj 245 410 r rhythm-tolerance;
#X obj 189 465 +;
#X msg 255 443 0;
#X msg 201 109 0;
#X obj 174 533 /;
#X obj 397 64 t f f;
#X obj 150 52 t b b b b;
#X obj 174 554 outlet;
#X obj 188 490 t f f;
#X obj 174 512 f;
#X obj 86 321 tabread player-rhythm;
#X obj 283 337 tabread target-rhythm;
#X obj 189 438 < 60;
#X connect 0 0 16 0;
#X connect 1 0 17 0;
#X connect 3 0 4 0;
#X connect 4 0 5 0;
#X connect 5 0 6 0;
#X connect 6 0 8 0;
#X connect 6 1 7 0;
#X connect 7 0 5 1;
#X connect 8 0 21 0;
#X connect 8 1 22 0;
#X connect 9 0 10 0;
#X connect 10 0 23 0;
#X connect 11 0 23 1;
#X connect 12 0 19 0;
#X connect 13 0 12 1;
#X connect 14 0 5 1;
#X connect 15 0 18 0;
#X connect 16 0 3 1;
#X connect 16 1 15 1;
#X connect 17 0 20 0;
#X connect 17 1 3 0;
#X connect 17 2 13 0;
#X connect 17 3 14 0;
#X connect 19 0 20 1;
#X connect 19 1 12 1;
#X connect 20 0 15 0;
#X connect 21 0 9 0;
#X connect 22 0 9 1;
#X connect 23 0 12 0;
#X restore 78 227 pd rhythm-scoring;
#X obj 781 51 t b b f f;
#X obj 77 261 outlet;
#X obj 193 118 rhy-timer player-rhythm;
#X obj 541 126 rhy-timer target-rhythm;
#X msg 786 122 \; player-rhythm resize \$1 \; target-rhythm resize
\$1 \; player-rhythm const 0 \; target-rhythm const 0;
#X obj 940 23 inlet;
#X text 950 44 reset;
#X connect 0 0 12 0;
#X connect 3 0 11 0;
#X connect 4 0 9 0;
#X connect 6 0 8 0;
#X connect 8 0 10 0;
#X connect 9 0 11 1;
#X connect 9 1 12 1;
#X connect 9 2 13 0;
#X connect 9 3 8 1;
#X connect 14 0 12 1;
#X connect 14 0 11 1;
