#N canvas 0 22 997 482 10;
#X obj 568 56 inlet;
#X text 616 54 midi note;
#X text 189 62 user note;
#X obj 768 212 table user-rhythm;
#X obj 770 238 table target-rhythm;
#X obj 191 78 inlet;
#X obj 782 23 inlet;
#X msg 782 81 \; user-rhythm resize \$1 \; target-rhythm resize \$1
\; user-rhythm const 0 \; target-rhythm const 0;
#X text 817 24 number of notes;
#X obj 541 126 rhy-timer target-rhythm;
#X obj 193 118 rhy-timer user-rhythm;
#X obj 42 67 inlet;
#X text 40 49 bang when finished;
#N canvas 503 383 611 587 rhythm-scoring 0;
#X obj 398 39 inlet;
#X obj 151 24 inlet;
#X text 434 39 num notes;
#X obj 149 82 f 1;
#X obj 148 112 until;
#X obj 148 164 int;
#X obj 148 192 t f f;
#X obj 189 192 + 1;
#X obj 167 273 t f f;
#X obj 86 321 tabread user-rhythm;
#X obj 283 337 tabread target-rhythm;
#X obj 190 383 -;
#X obj 189 413 abs;
#X obj 189 438 < 100;
#X obj 245 410 r rhythm-tolerance;
#X obj 189 465 +;
#X obj 229 490 f 0;
#X msg 261 447 0;
#X msg 267 162 0;
#X obj 174 533 /;
#X obj 397 64 t f f;
#X obj 150 52 t b b b b;
#X obj 174 554 outlet;
#X obj 188 490 t f f;
#X obj 174 512 f;
#X connect 0 0 20 0;
#X connect 1 0 21 0;
#X connect 3 0 4 0;
#X connect 4 0 5 0;
#X connect 5 0 6 0;
#X connect 6 0 8 0;
#X connect 6 1 7 0;
#X connect 7 0 5 1;
#X connect 8 0 9 0;
#X connect 8 1 10 0;
#X connect 9 0 11 0;
#X connect 10 0 11 1;
#X connect 11 0 12 0;
#X connect 12 0 13 0;
#X connect 14 0 13 1;
#X connect 15 0 23 0;
#X connect 16 0 15 1;
#X connect 17 0 16 0;
#X connect 18 0 5 1;
#X connect 19 0 22 0;
#X connect 20 0 3 1;
#X connect 20 1 19 1;
#X connect 21 0 24 0;
#X connect 21 1 3 0;
#X connect 21 2 17 0;
#X connect 21 3 18 0;
#X connect 23 0 24 1;
#X connect 23 1 16 0;
#X connect 24 0 19 0;
#X restore 78 227 pd rhythm-scoring;
#X obj 781 51 t b b f f;
#X obj 77 261 outlet;
#X connect 0 0 9 0;
#X connect 5 0 10 0;
#X connect 6 0 14 0;
#X connect 11 0 13 0;
#X connect 13 0 15 0;
#X connect 14 0 10 1;
#X connect 14 1 9 1;
#X connect 14 2 7 0;
#X connect 14 3 13 1;
