#N canvas 0 82 450 300 10;
#X obj 165 33 inlet;
#X obj 166 67 spigot 0;
#X obj 218 40 == \$1;
#X obj 168 96 outlet;
#X obj 217 16 r isrhythm;
#X connect 0 0 1 0;
#X connect 1 0 3 0;
#X connect 2 0 1 1;
#X connect 4 0 2 0;
