#N canvas 1307 86 369 152 10;
#X declare -path .;
#X declare -path latido_externals;
#N canvas 98 173 1130 510 internals 0;
#X obj 654 4 adc~;
#N canvas 41 411 450 300 play-pitch 0;
#X obj 186 86 t b b;
#X obj 185 192 *~;
#X obj 126 236 *~;
#X obj 174 51 inlet;
#X obj 122 269 outlet~;
#X obj 133 98 f 79;
#X obj 101 14 r firstnote;
#X floatatom 100 53 5 0 0 0 - - -, f 5;
#X text 268 62 a little FM synth to play \; first note;
#X obj 190 169 vline~;
#X msg 192 143 0 \, 1 10 \, 0 1000 20;
#N canvas 1 56 450 300 triangle-synth 0;
#X obj 143 32 inlet;
#X obj 142 57 mtof;
#X obj 142 88 phasor~;
#X obj 144 117 -~ 0.5;
#X obj 146 148 abs~;
#X obj 145 178 *~ 4;
#X obj 147 202 -~ 1;
#X obj 149 238 lop~ 2000;
#X obj 149 265 outlet~;
#X connect 0 0 1 0;
#X connect 1 0 2 0;
#X connect 2 0 3 0;
#X connect 3 0 4 0;
#X connect 4 0 5 0;
#X connect 5 0 6 0;
#X connect 6 0 7 0;
#X connect 7 0 8 0;
#X restore 53 149 pd triangle-synth;
#X connect 0 0 10 0;
#X connect 0 1 5 0;
#X connect 1 0 2 1;
#X connect 2 0 4 0;
#X connect 3 0 0 0;
#X connect 5 0 11 0;
#X connect 6 0 5 1;
#X connect 6 0 7 0;
#X connect 9 0 1 1;
#X connect 9 0 1 0;
#X connect 10 0 9 0;
#X connect 11 0 2 0;
#X restore 18 144 pd play-pitch;
#N canvas 670 368 450 300 click 0;
#X obj 145 214 outlet~;
#X obj 216 83 table click;
#X obj 99 84 tabplay~ click;
#X obj 312 96 loadbang;
#X msg 234 128 read -resize sounds/stick.wav click;
#X obj 234 155 soundfiler;
#X obj 95 29 inlet;
#X msg 93 59 bang;
#X connect 2 0 0 0;
#X connect 3 0 4 0;
#X connect 4 0 5 0;
#X connect 6 0 7 0;
#X connect 7 0 2 0;
#X restore 317 391 pd click;
#N canvas 1 62 450 300 output 0;
#X obj 110 24 inlet~;
#X obj 221 78 line~;
#X msg 243 53 \$1 100;
#X obj 156 162 dac~;
#X obj 241 29 r master-vol;
#X obj 151 109 *~;
#X connect 0 0 5 0;
#X connect 1 0 5 1;
#X connect 2 0 1 0;
#X connect 4 0 2 0;
#X connect 5 0 3 0;
#X connect 5 0 3 1;
#X restore 299 455 pd output;
#X obj 193 1 r midi-stop;
#X obj 104 1 r midi-play;
#X obj 18 104 r play-pitch;
#X obj 642 32 +~, f 4;
#N canvas 0 82 450 300 mic-metering 0;
#X obj 150 109 env~ 2048;
#X obj 159 278 s mic-in-levels;
#X obj 150 79 inlet~;
#X obj 246 149 int;
#X obj 248 84 dbtorms;
#X obj 248 125 * 100;
#N canvas 0 102 450 300 speedlim 0;
#X obj 156 10 inlet;
#X obj 155 81 spigot 1;
#X msg 202 56 0;
#X msg 249 48 1;
#X obj 154 164 outlet;
#X obj 155 134 t b b f;
#X obj 154 106 change;
#X obj 250 24 delay 50;
#X connect 0 0 1 0;
#X connect 1 0 6 0;
#X connect 2 0 1 1;
#X connect 3 0 1 1;
#X connect 5 0 7 0;
#X connect 5 1 2 0;
#X connect 5 2 4 0;
#X connect 6 0 5 0;
#X connect 7 0 3 0;
#X restore 244 171 pd speedlim;
#X obj 151 138 - 100;
#X obj 152 162 int;
#X obj 154 184 change;
#N canvas 0 102 450 300 speedlim 0;
#X obj 156 10 inlet;
#X obj 155 81 spigot 1;
#X msg 202 56 0;
#X msg 249 48 1;
#X obj 154 164 outlet;
#X obj 155 134 t b b f;
#X obj 154 106 change;
#X obj 250 24 delay 50;
#X connect 0 0 1 0;
#X connect 1 0 6 0;
#X connect 2 0 1 1;
#X connect 3 0 1 1;
#X connect 5 0 7 0;
#X connect 5 1 2 0;
#X connect 5 2 4 0;
#X connect 6 0 5 0;
#X connect 7 0 3 0;
#X restore 157 206 pd speedlim;
#X obj 254 209 s mic-osc;
#X connect 0 0 4 0;
#X connect 0 0 7 0;
#X connect 2 0 0 0;
#X connect 3 0 6 0;
#X connect 4 0 5 0;
#X connect 5 0 3 0;
#X connect 6 0 11 0;
#X connect 7 0 8 0;
#X connect 8 0 9 0;
#X connect 9 0 10 0;
#X connect 10 0 1 0;
#X restore 610 111 pd mic-metering;
#X obj 557 57 *~;
#X obj 479 6 r debug-autoperformer;
#X obj 705 26 tgl 15 0 debug-autoperformer empty empty 17 7 0 10 -196089
-1 -1 0 1;
#X text 722 27 DEBUG - autoperform;
#X obj 473 143 tabwrite~ current-audio;
#X obj 771 155 tabwrite~ current-synth;
#X obj 297 360 tabplay~ current-audio;
#X obj 442 361 tabplay~ current-synth;
#X obj 433 292 r listen;
#X obj 83 392 latido_scoring;
#X obj 500 294 r midi-stop;
#X msg 500 319 stop;
#X obj 778 348 int;
#X obj 804 348 + 1;
#X obj 842 352 % 4;
#X obj 227 84 latido_midiplayer;
#X msg 50 78 play;
#X msg 278 51 stop;
#N canvas 199 380 351 417 play-melody 0;
#X obj 191 191 *~;
#X obj 132 235 *~;
#X obj 137 66 inlet;
#X obj 196 168 vline~;
#X msg 198 142 0 \, 1 10 \, 0 1000 20;
#N canvas 0 110 160 303 triangle-synth 0;
#X obj 47 14 inlet;
#X obj 47 44 mtof;
#X obj 47 74 phasor~;
#X obj 47 104 -~ 0.5;
#X obj 47 134 abs~;
#X obj 47 164 *~ 4;
#X obj 47 194 -~ 1;
#X obj 47 254 outlet~;
#X obj 47 224 lop~ 3000;
#X connect 0 0 1 0;
#X connect 1 0 2 0;
#X connect 2 0 3 0;
#X connect 3 0 4 0;
#X connect 4 0 5 0;
#X connect 5 0 6 0;
#X connect 6 0 8 0;
#X connect 8 0 7 0;
#X restore 59 148 pd triangle-synth;
#X text 58 40 a little FM synth to play melody;
#X obj 128 268 s~ synth;
#X obj 137 93 t f b;
#X connect 0 0 1 1;
#X connect 1 0 7 0;
#X connect 2 0 8 0;
#X connect 3 0 0 1;
#X connect 3 0 0 0;
#X connect 4 0 3 0;
#X connect 5 0 1 0;
#X connect 8 0 5 0;
#X connect 8 1 4 0;
#X restore 121 144 pd play-melody;
#X obj 361 200 * 0;
#X obj 375 151 r countin;
#X floatatom 375 178 5 0 0 0 - - -, f 5;
#X msg 319 212 1;
#X msg 333 181 0;
#X obj 50 57 delay;
#X msg 787 89 bang;
#N canvas 762 380 450 300 audio-analysis 0;
#X obj 78 204 f;
#X obj 231 29 inlet~;
#X obj 192 163 moses 28;
#X obj 190 136 ftom;
#X obj 146 109 helmholtz~ 2048 4;
#X obj 324 142 int;
#X obj 353 144 + 1;
#X obj 382 145 t f f;
#X msg 323 115 bang;
#X obj 361 78 r midi-play;
#X msg 371 103 0;
#X obj 69 12 r helmholtz-tick;
#X obj 327 212 s helmholtz-tick;
#X obj 78 145 t b;
#X obj 231 52 lop~ 2000;
#X obj 231 76 hip~ 20;
#X obj 19 254 s tracked-pitch;
#X connect 0 0 16 0;
#X connect 1 0 14 0;
#X connect 2 1 0 1;
#X connect 3 0 2 0;
#X connect 4 1 3 0;
#X connect 4 1 8 0;
#X connect 5 0 6 0;
#X connect 6 0 7 0;
#X connect 7 0 5 1;
#X connect 7 1 12 0;
#X connect 8 0 5 0;
#X connect 9 0 10 0;
#X connect 10 0 5 1;
#X connect 11 0 13 0;
#X connect 13 0 0 0;
#X connect 14 0 15 0;
#X connect 15 0 4 0;
#X restore 597 88 pd audio-analysis;
#X obj 557 29 r~ synth;
#X obj 804 125 r~ synth;
#X msg 791 313 -1;
#X obj 770 266 r cue-countin;
#X msg 473 114 stop;
#X obj 161 51 s cue-countin;
#X obj 159 270 s cue-begin;
#X obj 787 67 r cue-begin;
#X obj 631 53 *~ 0.5;
#X obj 922 370 r cue-countin;
#X msg 922 393 \; current-audio const 0 \; current-synth const 0;
#X obj 852 318 r meter-from-file;
#X obj 366 1 r new-bpm;
#X obj 366 24 int;
#X obj 817 434 s metro-osc;
#X obj 817 408 + 1;
#X msg 88 167 \; metro-state 1;
#X msg 89 201 \; metro-state 2;
#X msg 191 235 \; metro-state 0;
#X obj 83 423 s score-osc;
#X obj 272 1 r midifilename;
#X floatatom 329 60 5 0 0 0 - - -, f 5;
#X obj 272 26 symbol;
#X floatatom 881 358 5 0 0 0 - - -, f 5;
#X obj 817 383 t f f;
#X obj 341 315 r rhy-click;
#X obj 626 251 new-rhythm-game;
#X obj 713 227 rhythm-gate 1;
#X obj 669 202 rhythm-gate 1;
#X obj 657 174 r user-rhy;
#X obj 554 225 rhythm-gate 1;
#X obj 123 367 rhythm-gate 0;
#X obj 182 338 rhythm-gate 0;
#X obj 18 124 rhythm-gate 0;
#X obj 626 281 s score-osc;
#N canvas 230 230 619 324 clank 0;
#X obj 177 74 rhythm-gate 1;
#X obj 176 122 spigot 0;
#X msg 225 96 0;
#X msg 191 96 1;
#X obj 162 24 inlet;
#X obj 217 36 inlet;
#X obj 272 35 inlet;
#X obj 446 110 loadbang;
#X obj 368 169 soundfiler;
#X msg 168 53 bang;
#X obj 177 228 outlet~;
#X obj 367 228 soundfiler;
#X msg 368 142 read -resize sounds/cowbell1.wav cowbell1;
#X msg 367 201 read -resize sounds/cowbell2.wav cowbell2;
#X obj 360 58 table cowbell1;
#X obj 356 80 table cowbell2;
#X obj 178 143 random 2;
#X obj 177 170 sel 0 1;
#X obj 182 197 tabplay~ cowbell2;
#X obj 68 197 tabplay~ cowbell1;
#X obj 124 95 bng 15 250 50 0 empty empty empty 17 7 0 10 -262144 -1
-1;
#X connect 0 0 1 0;
#X connect 1 0 16 0;
#X connect 2 0 1 1;
#X connect 3 0 1 1;
#X connect 4 0 9 0;
#X connect 5 0 3 0;
#X connect 6 0 2 0;
#X connect 7 0 12 0;
#X connect 7 0 13 0;
#X connect 9 0 0 0;
#X connect 12 0 8 0;
#X connect 13 0 11 0;
#X connect 16 0 17 0;
#X connect 17 0 19 0;
#X connect 17 1 18 0;
#X connect 18 0 10 0;
#X connect 19 0 10 0;
#X connect 20 0 16 0;
#X restore 587 385 pd clank;
#X obj 611 340 r midi-play;
#X obj 102 23 t b b b b b b;
#X obj 778 203 r num-notes;
#X obj 304 156 r midi-stop;
#X msg 55 22 stop;
#X obj 323 239 latido_delaymetro;
#X obj 54 312 pipe 0;
#X obj 409 43 r latency-correction;
#X msg 942 444 \; player-melody const 60 \; target-melody const 60
;
#X obj 431 81 + 10;
#X obj 327 119 delay 0;
#X obj 258 134 delay 0;
#X obj 27 258 rhythm-gate 0;
#X obj 28 282 rhythm-gate 1;
#X obj 935 92 r isrhythm;
#X obj 936 115 == 0;
#X obj 726 61 *~;
#X connect 0 0 7 0;
#X connect 0 1 7 1;
#X connect 1 0 3 0;
#X connect 2 0 3 0;
#X connect 4 0 54 0;
#X connect 4 0 76 0;
#X connect 4 0 26 0;
#X connect 5 0 73 0;
#X connect 6 0 69 0;
#X connect 7 0 44 0;
#X connect 9 0 35 0;
#X connect 10 0 9 1;
#X connect 15 0 3 0;
#X connect 16 0 3 0;
#X connect 17 0 16 0;
#X connect 17 0 15 0;
#X connect 18 0 55 0;
#X connect 19 0 20 0;
#X connect 20 0 16 0;
#X connect 20 0 15 0;
#X connect 20 0 71 2;
#X connect 21 0 22 0;
#X connect 22 0 23 0;
#X connect 23 0 60 0;
#X connect 24 0 64 0;
#X connect 24 0 84 0;
#X connect 24 0 85 0;
#X connect 24 1 83 0;
#X connect 24 2 28 0;
#X connect 24 2 77 1;
#X connect 24 3 32 0;
#X connect 24 3 40 0;
#X connect 24 3 54 0;
#X connect 24 3 71 2;
#X connect 24 3 82 0;
#X connect 24 3 66 0;
#X connect 25 0 24 0;
#X connect 25 0 42 0;
#X connect 25 0 53 0;
#X connect 26 0 24 0;
#X connect 26 0 13 0;
#X connect 26 0 14 0;
#X connect 28 0 33 1;
#X connect 29 0 30 0;
#X connect 30 0 28 1;
#X connect 31 0 77 0;
#X connect 32 0 77 0;
#X connect 33 0 25 0;
#X connect 34 0 14 0;
#X connect 34 0 13 0;
#X connect 36 0 9 0;
#X connect 37 0 14 0;
#X connect 38 0 21 1;
#X connect 39 0 38 0;
#X connect 40 0 13 0;
#X connect 40 0 14 0;
#X connect 43 0 34 0;
#X connect 44 0 35 0;
#X connect 44 0 8 0;
#X connect 44 0 88 0;
#X connect 45 0 46 0;
#X connect 45 0 80 0;
#X connect 47 0 23 1;
#X connect 47 0 59 0;
#X connect 48 0 49 0;
#X connect 49 0 57 0;
#X connect 51 0 50 0;
#X connect 56 0 58 0;
#X connect 57 0 24 1;
#X connect 58 0 24 0;
#X connect 60 0 51 0;
#X connect 60 1 21 1;
#X connect 61 0 2 0;
#X connect 62 0 70 0;
#X connect 63 0 62 3;
#X connect 64 0 62 2;
#X connect 65 0 62 1;
#X connect 65 0 71 0;
#X connect 66 0 62 0;
#X connect 67 0 18 1;
#X connect 68 0 18 2;
#X connect 69 0 1 0;
#X connect 71 0 3 0;
#X connect 71 0 13 0;
#X connect 72 0 71 1;
#X connect 73 0 33 0;
#X connect 73 1 31 0;
#X connect 73 2 69 0;
#X connect 73 3 41 0;
#X connect 73 3 52 0;
#X connect 73 4 57 0;
#X connect 73 5 62 4;
#X connect 74 0 63 0;
#X connect 75 0 32 0;
#X connect 76 0 33 0;
#X connect 77 0 2 0;
#X connect 77 0 21 0;
#X connect 78 0 27 0;
#X connect 78 0 18 0;
#X connect 79 0 78 1;
#X connect 79 0 81 0;
#X connect 79 0 83 1;
#X connect 81 0 82 1;
#X connect 82 0 68 0;
#X connect 83 0 67 0;
#X connect 84 0 78 0;
#X connect 85 0 27 0;
#X connect 86 0 87 0;
#X connect 87 0 88 1;
#X connect 88 0 13 0;
#X restore 31 22 pd internals;
#N canvas 212 292 223 164 setup 0;
#X obj 23 15 loadbang;
#X obj 24 120 declare -path latido_externals;
#X msg 23 41 \; pd dsp 1 \; master-vol 0.5 \; tolerance 0.9 \; latency-correction
42;
#X connect 0 0 2 0;
#X restore 31 68 pd setup;
#N canvas 0 124 424 99 recording-arrays 0;
#X obj 24 42 table player-melody;
#X obj 150 42 table target-melody;
#X obj 24 66 table player-rhythm;
#X obj 150 66 table target-rhythm;
#X obj 25 19 table current-audio 2.646e+006;
#X obj 207 19 table current-synth 2.646e+006;
#X restore 31 45 pd recording-arrays;
#N canvas 444 305 990 444 networking 0;
#X obj 149 235 netsend -u -b;
#X obj 149 260 tgl 15 0 empty empty empty 17 7 0 10 -262144 -1 -1 1
1;
#X obj 34 38 oscformat mic;
#X obj 34 64 list prepend send;
#X obj 34 89 list trim;
#X obj 34 10 r mic-osc;
#X obj 178 113 loadbang;
#X obj 390 48 oscparse;
#X obj 388 72 list trim;
#X obj 453 167 symbol;
#X obj 140 34 oscformat rhy;
#X obj 386 16 netreceive -u -b 12001;
#X msg 181 135 connect localhost 12000;
#X obj 453 201 sel play stop pitch replay;
#X obj 163 83 oscformat tempo;
#X obj 269 79 oscformat metro;
#X obj 163 55 r tempo-osc;
#X obj 268 56 r metro-osc;
#X obj 11 145 r metro-state;
#X obj 12 168 oscformat metrostate;
#X obj 256 171 r score-osc;
#X obj 257 194 oscformat score;
#X obj 139 11 r rhythm-osc;
#X obj 172 260 sel 0 1;
#X obj 621 201 s midifilename;
#X obj 599 165 s countin;
#X obj 388 273 s midi-play;
#X obj 529 272 s play-pitch;
#X obj 436 331 s midi-stop;
#X obj 568 334 s listen;
#X obj 513 169 s new-bpm;
#X obj 356 166 s master-vol;
#X obj 743 186 s isrhythm;
#X obj 529 243 rhythm-switch;
#X obj 262 261 delay 2000;
#X obj 472 80 s user-rhy;
#X msg 471 57 bang;
#X obj 394 108 route latido rhy;
#X obj 717 12 loadbang;
#X msg 834 37 stop;
#X obj 717 88 t b b;
#X obj 268 17 oscformat watchdog;
#X obj 717 41 delay 5000;
#X obj 717 67 metro 1000;
#X obj 833 71 delay 1000;
#X obj 828 196 s latency-correction;
#X obj 396 136 route vol transport tempo midifile countin isrhythm
quit watchdog latency testlatency, f 65;
#X obj 828 222 s toggle-latency-tester;
#X obj 39 307 r tested-latency;
#X obj 40 329 oscformat latency;
#X msg 833 105 \; pd quit;
#X connect 0 0 1 0;
#X connect 1 0 23 0;
#X connect 2 0 3 0;
#X connect 3 0 4 0;
#X connect 4 0 0 0;
#X connect 5 0 2 0;
#X connect 6 0 12 0;
#X connect 7 0 8 0;
#X connect 8 0 37 0;
#X connect 9 0 13 0;
#X connect 10 0 3 0;
#X connect 11 0 7 0;
#X connect 12 0 0 0;
#X connect 13 0 26 0;
#X connect 13 1 28 0;
#X connect 13 2 33 0;
#X connect 13 3 29 0;
#X connect 14 0 3 0;
#X connect 15 0 3 0;
#X connect 16 0 14 0;
#X connect 17 0 15 0;
#X connect 18 0 19 0;
#X connect 19 0 3 0;
#X connect 20 0 21 0;
#X connect 21 0 3 0;
#X connect 22 0 10 0;
#X connect 23 0 34 0;
#X connect 33 0 27 0;
#X connect 34 0 12 0;
#X connect 36 0 35 0;
#X connect 37 0 46 0;
#X connect 37 1 36 0;
#X connect 38 0 42 0;
#X connect 39 0 44 0;
#X connect 40 0 41 0;
#X connect 40 1 44 0;
#X connect 41 0 3 0;
#X connect 42 0 43 0;
#X connect 43 0 40 0;
#X connect 44 0 50 0;
#X connect 46 0 31 0;
#X connect 46 1 9 0;
#X connect 46 2 30 0;
#X connect 46 3 24 0;
#X connect 46 4 25 0;
#X connect 46 5 32 0;
#X connect 46 6 50 0;
#X connect 46 7 39 0;
#X connect 46 8 45 0;
#X connect 46 9 47 0;
#X connect 48 0 49 0;
#X connect 49 0 3 0;
#X restore 31 91 pd networking;
#X obj 30 114 latency-tester;
#X floatatom 183 61 5 0 0 0 - - -, f 5;
#X obj 183 84 s latency-correction;
#X text 220 60 ms;
#X connect 5 0 6 0;
