#N canvas 377 268 1060 609 10;
#X obj 358 173 latido_rhythmlang;
#X obj 74 150 latido_rhy_listener;
#N canvas 503 217 824 534 rhythm_list_diff 0;
#X obj 306 39 inlet;
#X obj 55 39 inlet;
#X obj 227 177 list split 1;
#X obj 247 142 list;
#X obj 129 142 list;
#X obj 142 176 list split 1;
#X obj 203 206 -;
#X obj 173 90 t b b;
#X obj 248 90 until;
#X text 54 20 live;
#X text 304 18 recorded;
#X obj 287 275 r rhythm-tolerance;
#X obj 168 361 +;
#X obj 234 352 int;
#X obj 261 352 + 1;
#X obj 209 329 t f b;
#X obj 319 148 t b b;
#X obj 196 361 int;
#X obj 179 386 t f f;
#X floatatom 180 412 5 0 0 0 - - -, f 5;
#X floatatom 248 403 5 0 0 0 - - -, f 5;
#X obj 205 445 /;
#X obj 190 475 f;
#X floatatom 191 502 5 0 0 0 - - -, f 5;
#X obj 205 267 abs;
#X obj 134 51 t b a b;
#X msg 268 316 0;
#X text 229 502 score!;
#X text 358 300 in ms;
#X obj 294 492 outlet;
#X obj 208 304 < 100;
#X obj 421 418 tabwrite rhy-results;
#X obj 409 353 t b f;
#X obj 204 235 t f f;
#X obj 458 324 clip -200 200;
#X obj 429 390 f;
#X obj 247 376 t f f f;
#X obj 481 473 pack;
#X obj 482 498 s osc-rhythm;
#X obj 527 477 print diff;
#X obj 488 390 -1;
#X connect 0 0 3 1;
#X connect 1 0 25 0;
#X connect 2 0 6 1;
#X connect 2 1 3 1;
#X connect 3 0 2 0;
#X connect 4 0 5 0;
#X connect 5 0 6 0;
#X connect 5 1 4 1;
#X connect 5 2 16 0;
#X connect 6 0 33 0;
#X connect 7 0 4 0;
#X connect 7 1 3 0;
#X connect 8 0 7 0;
#X connect 11 0 30 1;
#X connect 12 0 17 0;
#X connect 13 0 14 0;
#X connect 14 0 36 0;
#X connect 15 0 12 0;
#X connect 15 1 13 0;
#X connect 16 0 22 0;
#X connect 16 1 8 1;
#X connect 17 0 18 0;
#X connect 18 0 19 0;
#X connect 18 1 12 1;
#X connect 19 0 21 0;
#X connect 20 0 21 1;
#X connect 21 0 22 1;
#X connect 22 0 23 0;
#X connect 22 0 29 0;
#X connect 24 0 30 0;
#X connect 25 0 8 0;
#X connect 25 1 4 1;
#X connect 25 2 26 0;
#X connect 26 0 13 1;
#X connect 26 0 12 1;
#X connect 30 0 15 0;
#X connect 32 0 35 0;
#X connect 32 1 40 0;
#X connect 33 0 24 0;
#X connect 33 1 34 0;
#X connect 34 0 35 1;
#X connect 35 0 31 0;
#X connect 35 0 37 0;
#X connect 36 0 20 0;
#X connect 36 1 13 1;
#X connect 36 2 32 0;
#X connect 37 0 38 0;
#X connect 37 0 39 0;
#X connect 40 0 31 1;
#X connect 40 0 37 1;
#X restore 152 194 pd rhythm_list_diff;
#X obj 358 203 list length;
#X obj 152 217 * 100;
#X msg 152 240 \$1 percent;
#X floatatom 241 61 5 0 0 0 - - -, f 5;
#X text 213 59 bpm;
#N canvas 0 82 450 300 bpm-to-ms 0;
#X obj 192 44 inlet;
#X obj 196 162 outlet;
#X obj 193 73 t b f;
#X obj 193 129 /;
#X msg 193 99 60000;
#X connect 0 0 2 0;
#X connect 2 0 4 0;
#X connect 2 1 3 1;
#X connect 3 0 1 0;
#X connect 4 0 3 0;
#X restore 241 79 pd bpm-to-ms;
#X text 18 12 countin and beats/bar;
#X msg 29 298 \; rhy-count-label label;
#X msg 798 40 200;
#X msg 798 62 100;
#X msg 799 84 50;
#X obj 841 65 s rhythm-tolerance;
#X text 843 32 tolerance in ms (low is harder);
#X text 750 63 default;
#X obj 152 264 print score;
#N canvas 1 65 492 504 rhythm 0;
#X text 86 66 w = whole note \; h = half note \; q = quarter note \;
e = eighth note \; s = sixteenth note \; t = 32nd note;
#X text 88 160 add a dot after the note for a dotted rhythm;
#X text 89 178 (double dots are not yet supported - TODO);
#X text 86 205 r at the end of the symbol indicates a rest \, eg \;
wr = whole rest \, e.r = dotted eighth rest;
#X text 84 17 latido uses a custom language for rhythmic notation \;
although limited in scope \, it is quick and intuitive;
#X text 210 68 (all symbols are case sensitive);
#X text 89 264 followed by open parenthesis \, followed by the note
values.;
#X text 90 283 the tuplet ends with a close parenthesis \, eg:;
#X text 126 307 quarter note triplet = 3 ( q q q );
#X text 104 341 duplets and quadruplets implement 2:3 and 4:3 ratios
\; regardless of meter;
#X text 87 448 NOTE: COMPOUND METERS ARE NOT YET IMPLEMENTED \; COMING
VERY VERY SOON!!;
#X text 87 246 for tuplets \, start with the tuplet value (2 \, 3 \,
4 \, 5 \, 6 \, or 7);
#X text 97 387 vertical bar | symbols may be used for keeping melody
;
#X text 99 403 organized--they are ignored by the parser;
#X restore 731 155 pd rhythm message info;
#X msg 358 229 \; rhy-results const 0 \; rhy-results resize \$1;
#X text 705 132 click for info about rhy symbols;
#X obj 57 262 s rhythm-score;
#X obj 673 320 textfile;
#X msg 673 294 read \$1 \, rewind \, bang;
#X obj 673 269 openpanel;
#X msg 675 242 bang;
#X obj 743 226 r rhyfilename;
#X obj 743 251 symbol;
#X obj 303 31 r new-bpm;
#X obj 207 13 r midi-stop;
#X obj 232 237 s score-osc;
#X obj 185 173 s metro-osc;
#X obj 48 74 r countin;
#X obj 90 96 r beatsperbar;
#X obj 31 36 r rhy-play;
#X obj 33 104 f 4;
#X obj 36 127 pack f 4;
#X obj 216 152 s rhy-click;
#X msg 189 309 \; metro-state 0;
#X connect 0 0 2 1;
#X connect 0 0 3 0;
#X connect 1 0 2 0;
#X connect 1 1 31 0;
#X connect 1 1 37 0;
#X connect 2 0 4 0;
#X connect 2 0 10 0;
#X connect 2 0 30 0;
#X connect 3 0 1 2;
#X connect 3 0 19 0;
#X connect 4 0 5 0;
#X connect 4 0 21 0;
#X connect 4 0 38 0;
#X connect 5 0 17 0;
#X connect 6 0 8 0;
#X connect 8 0 1 1;
#X connect 8 0 0 1;
#X connect 11 0 14 0;
#X connect 12 0 14 0;
#X connect 13 0 14 0;
#X connect 22 0 0 0;
#X connect 23 0 22 0;
#X connect 24 0 23 0;
#X connect 25 0 24 0;
#X connect 26 0 27 0;
#X connect 27 0 23 0;
#X connect 28 0 6 0;
#X connect 29 0 1 3;
#X connect 29 0 10 0;
#X connect 32 0 35 1;
#X connect 33 0 36 1;
#X connect 34 0 35 0;
#X connect 35 0 36 0;
#X connect 36 0 1 0;
