#N canvas 1 56 450 368 10;
#X obj 115 8 inlet;
#X obj 262 44 inlet;
#X obj 143 135 f;
#X obj 142 68 t b f;
#X obj 142 96 until;
#X obj 147 214 < \$1;
#X obj 144 163 - \$1;
#X obj 150 304 f;
#X obj 147 186 t f f f;
#X obj 149 238 sel 1 0;
#X obj 148 263 t b b;
#X obj 150 333 outlet;
#X text 288 185 vanilla implementation;
#X text 284 203 of fmod;
#X text 286 227 works on non-negative;
#X text 286 249 numbers only;
#X obj 116 34 moses \$1;
#X obj 262 67 t f f f;
#X connect 0 0 16 0;
#X connect 1 0 17 0;
#X connect 2 0 6 0;
#X connect 3 0 4 0;
#X connect 3 1 2 1;
#X connect 4 0 2 0;
#X connect 5 0 9 0;
#X connect 6 0 8 0;
#X connect 7 0 11 0;
#X connect 8 0 5 0;
#X connect 8 1 7 1;
#X connect 8 2 2 1;
#X connect 9 0 10 0;
#X connect 10 0 7 0;
#X connect 10 1 4 1;
#X connect 16 0 11 0;
#X connect 16 1 3 0;
#X connect 17 0 6 1;
#X connect 17 1 5 1;
#X connect 17 2 16 1;
