#N canvas 0 102 450 300 10;
#X obj 169 51 inlet;
#X obj 169 73 + 120;
#X obj 169 233 outlet;
#X obj 214 201 - 12;
#X obj 169 96 j-fmod 12;
#X obj 169 177 moses 11.2;
#X connect 0 0 1 0;
#X connect 1 0 4 0;
#X connect 3 0 2 0;
#X connect 4 0 5 0;
#X connect 5 0 2 0;
#X connect 5 1 3 0;
