#N canvas 253 271 564 336 10;
#X obj 166 126 bonk~;
#X obj 158 73 adc~;
#X obj 274 121 dac~;
#X obj 249 32 metro 500;
#X obj 248 237 timer;
#X obj 192 179 route 0;
#X msg 275 213 bang;
#X msg 6 32 minvel 80 \, read template.txt;
#X obj 6 7 loadbang;
#X obj 33 186 switch~;
#X obj 249 55 t b b;
#X obj 276 89 tabplay~ click;
#X obj 386 13 r toggle-latency-tester;
#X obj 386 37 t f f;
#X obj 248 263 mavg 10;
#X obj 247 286 s tested-latency;
#X msg 33 114 0;
#X connect 0 1 5 0;
#X connect 1 0 0 0;
#X connect 1 1 0 0;
#X connect 3 0 10 0;
#X connect 4 0 14 0;
#X connect 5 0 6 0;
#X connect 6 0 4 1;
#X connect 7 0 0 0;
#X connect 8 0 7 0;
#X connect 8 0 16 0;
#X connect 10 0 4 0;
#X connect 10 1 11 0;
#X connect 11 0 2 0;
#X connect 11 0 2 1;
#X connect 12 0 13 0;
#X connect 13 0 3 0;
#X connect 13 1 9 0;
#X connect 14 0 15 0;
#X connect 16 0 9 0;
