#N canvas 493 120 612 647 10;
#X obj 144 97 list split 1;
#X obj 142 67 list;
#X msg 147 237 4;
#X msg 176 237 6;
#X msg 168 263 2;
#X msg 197 263 3;
#X msg 212 236 1;
#X msg 241 236 1.5;
#X msg 233 264 0.5;
#X msg 267 262 0.75;
#X msg 276 234 0.25;
#X msg 305 234 0.375;
#X obj 276 365 * 1;
#X msg 380 130 0.666667;
#X msg 394 161 0.8;
#X msg 396 185 1.14286;
#X obj 367 255 f;
#X msg 343 322 1;
#X msg 312 263 0.125;
#X obj 276 398 +;
#X msg 317 368 0;
#X msg 0 326 4;
#X msg 29 326 6;
#X msg 21 352 2;
#X msg 50 352 3;
#X msg 65 325 1;
#X msg 94 325 1.5;
#X msg 86 353 0.5;
#X msg 120 351 0.75;
#X msg 129 323 0.25;
#X msg 158 323 0.375;
#X msg 165 352 0.125;
#X obj 46 159 sel wr w.r hr h.r qr q.r er e.r sr s.r tr;
#X obj 467 163 print bad symbol;
#X obj 91 392 f;
#X obj 91 5 inlet;
#X obj 47 77 until;
#X obj 353 398 f;
#X obj 266 434 t f f;
#X obj 274 464 +;
#X msg 314 436 0;
#X obj 275 487 t f f;
#X msg 396 365 0;
#X obj 177 383 t b f;
#X obj 223 319 t b f b;
#X obj 366 430 * 1000;
#X obj 403 495 t l l;
#X obj 406 529 list;
#X obj 384 462 list prepend;
#X msg 171 423 list;
#X obj 402 563 outlet;
#X obj 49 34 t b b b b b a;
#X obj 463 17 inlet;
#X text 505 19 tempo;
#X obj 380 97 sel 3 6 5 7 2 4;
#X msg 473 212 1.5;
#X msg 488 246 0.75;
#X obj 156 183 sel w w. h h. q q. e e. s s. t ( ) |;
#X connect 0 0 32 0;
#X connect 0 1 1 1;
#X connect 0 2 36 1;
#X connect 0 2 47 0;
#X connect 1 0 0 0;
#X connect 2 0 44 0;
#X connect 3 0 44 0;
#X connect 4 0 44 0;
#X connect 5 0 44 0;
#X connect 6 0 44 0;
#X connect 7 0 44 0;
#X connect 8 0 44 0;
#X connect 9 0 44 0;
#X connect 10 0 44 0;
#X connect 11 0 44 0;
#X connect 12 0 19 0;
#X connect 13 0 16 1;
#X connect 14 0 16 1;
#X connect 15 0 16 1;
#X connect 16 0 12 1;
#X connect 17 0 12 1;
#X connect 18 0 44 0;
#X connect 19 0 38 0;
#X connect 20 0 19 1;
#X connect 21 0 34 0;
#X connect 22 0 34 0;
#X connect 23 0 34 0;
#X connect 24 0 34 0;
#X connect 25 0 34 0;
#X connect 26 0 34 0;
#X connect 27 0 34 0;
#X connect 28 0 34 0;
#X connect 29 0 34 0;
#X connect 30 0 34 0;
#X connect 31 0 34 0;
#X connect 32 0 21 0;
#X connect 32 1 22 0;
#X connect 32 2 23 0;
#X connect 32 3 24 0;
#X connect 32 4 25 0;
#X connect 32 5 26 0;
#X connect 32 6 27 0;
#X connect 32 7 28 0;
#X connect 32 8 29 0;
#X connect 32 9 30 0;
#X connect 32 10 31 0;
#X connect 32 11 57 0;
#X connect 34 0 43 0;
#X connect 35 0 51 0;
#X connect 36 0 1 0;
#X connect 37 0 45 0;
#X connect 38 0 19 1;
#X connect 38 1 39 0;
#X connect 39 0 41 0;
#X connect 40 0 39 1;
#X connect 41 0 39 1;
#X connect 41 1 37 1;
#X connect 42 0 37 1;
#X connect 43 0 20 0;
#X connect 43 1 12 0;
#X connect 44 0 20 0;
#X connect 44 1 12 0;
#X connect 44 2 37 0;
#X connect 45 0 48 0;
#X connect 46 0 47 1;
#X connect 46 1 48 1;
#X connect 47 0 50 0;
#X connect 48 0 46 0;
#X connect 49 0 48 1;
#X connect 51 0 36 0;
#X connect 51 1 40 0;
#X connect 51 2 17 0;
#X connect 51 3 42 0;
#X connect 51 4 49 0;
#X connect 51 5 1 1;
#X connect 52 0 45 1;
#X connect 54 0 13 0;
#X connect 54 2 14 0;
#X connect 54 3 15 0;
#X connect 54 4 55 0;
#X connect 54 5 56 0;
#X connect 54 6 33 0;
#X connect 55 0 16 1;
#X connect 56 0 16 1;
#X connect 57 0 2 0;
#X connect 57 1 3 0;
#X connect 57 2 4 0;
#X connect 57 3 5 0;
#X connect 57 4 6 0;
#X connect 57 5 7 0;
#X connect 57 6 8 0;
#X connect 57 7 9 0;
#X connect 57 8 10 0;
#X connect 57 9 11 0;
#X connect 57 10 18 0;
#X connect 57 11 16 0;
#X connect 57 12 17 0;
#X connect 57 14 54 0;
