#N canvas 1 56 450 300 10;
#X msg 208 118 1;
#X msg 207 143 0;
#X obj 150 188 delay 2;
#X obj 123 158 t b b;
#X obj 123 131 spigot;
#X obj 110 28 inlet;
#X obj 311 29 inlet;
#X obj 138 78 t b b;
#X text 94 7 toggle to start;
#X obj 111 51 sel 1 0;
#X text 310 54 speed;
#X obj 138 241 outlet;
#X connect 0 0 4 1;
#X connect 1 0 4 1;
#X connect 2 0 4 0;
#X connect 3 0 11 0;
#X connect 3 1 2 0;
#X connect 4 0 3 0;
#X connect 5 0 9 0;
#X connect 6 0 2 1;
#X connect 7 0 4 0;
#X connect 7 1 0 0;
#X connect 9 0 7 0;
#X connect 9 1 1 0;
