#N canvas 328 303 687 478 10;
#X obj 83 16 inlet;
#X obj 155 185 -;
#X obj 155 210 abs;
#X obj 198 205 r tolerance;
#X obj 154 262 +;
#X obj 154 289 t f f;
#X obj 143 332 f;
#X msg 27 193 0;
#X obj 143 361 /;
#X obj 287 132 f;
#X obj 339 12 inlet;
#X obj 144 398 f;
#X obj 143 423 outlet;
#X obj 27 172 r midi-play;
#X obj 253 15 inlet;
#X text 195 16 note off;
#X obj 390 319 pack f f f f;
#X obj 390 367 print;
#X msg 390 343 target: \$3 actual: \$4 diff: \$2 points: \$1;
#X obj 431 40 r tracked-pitch;
#X obj 180 334 r num-notes;
#X obj 140 102 f;
#X text 128 16 note on;
#X text 336 37 bang done;
#N canvas 0 143 225 292 running-average 0;
#X obj 30 114 +;
#X obj 65 176 int;
#X obj 93 175 + 1;
#X obj 30 226 /;
#X obj 30 146 t f f b;
#X obj 121 175 t f f;
#X obj 30 91 inlet;
#X obj 130 36 inlet;
#X text 168 36 reset;
#X msg 129 60 0;
#X obj 129 85 t f f;
#X obj 30 248 outlet;
#X connect 0 0 4 0;
#X connect 1 0 2 0;
#X connect 2 0 5 0;
#X connect 3 0 11 0;
#X connect 4 0 3 0;
#X connect 4 1 0 1;
#X connect 4 2 1 0;
#X connect 5 0 1 1;
#X connect 5 1 3 1;
#X connect 6 0 0 0;
#X connect 7 0 9 0;
#X connect 9 0 10 0;
#X connect 10 0 0 1;
#X connect 10 1 1 1;
#X restore 431 62 pd running-average;
#X obj 83 40 t f b;
#X obj 253 39 t b b b;
#X obj 505 152 j-fmod 12;
#X floatatom 504 126 5 0 0 0 - - -, f 5;
#X floatatom 503 181 5 0 0 0 - - -, f 5;
#X obj 287 154 j-tolerance-mod;
#X obj 154 233 < 0.8;
#X obj 140 125 j-tolerance-mod;
#X connect 0 0 25 0;
#X connect 1 0 2 0;
#X connect 2 0 16 1;
#X connect 2 0 31 0;
#X connect 3 0 31 1;
#X connect 4 0 5 0;
#X connect 5 0 6 1;
#X connect 5 1 4 1;
#X connect 6 0 8 0;
#X connect 7 0 4 1;
#X connect 8 0 11 1;
#X connect 9 0 30 0;
#X connect 10 0 11 0;
#X connect 11 0 12 0;
#X connect 13 0 7 0;
#X connect 14 0 26 0;
#X connect 16 0 18 0;
#X connect 19 0 24 0;
#X connect 20 0 8 1;
#X connect 21 0 32 0;
#X connect 24 0 9 1;
#X connect 25 0 21 1;
#X connect 25 1 24 1;
#X connect 26 0 21 0;
#X connect 26 1 9 0;
#X connect 26 2 6 0;
#X connect 27 0 29 0;
#X connect 28 0 27 0;
#X connect 30 0 16 3;
#X connect 30 0 1 1;
#X connect 31 0 4 0;
#X connect 31 0 16 0;
#X connect 32 0 16 2;
#X connect 32 0 1 0;
