#N canvas 225 219 450 300 10;
#X obj 62 162 tabwrite \$0-mavg;
#X obj 134 106 f;
#X obj 163 106 + 1;
#X obj 192 106 % \$1;
#X obj 226 106 t f f;
#X obj 67 42 inlet;
#X obj 290 162 array define \$0-mavg \$1;
#X obj 164 201 array sum \$0-mavg;
#X obj 67 65 t b f b;
#X obj 164 270 outlet;
#X floatatom 82 267 5 0 0 0 - - -, f 5;
#X obj 165 229 / \$1;
#X connect 1 0 2 0;
#X connect 2 0 3 0;
#X connect 3 0 4 0;
#X connect 4 0 0 1;
#X connect 4 1 1 1;
#X connect 5 0 8 0;
#X connect 7 0 11 0;
#X connect 8 0 7 0;
#X connect 8 1 0 0;
#X connect 8 2 1 0;
#X connect 11 0 10 0;
#X connect 11 0 9 0;
