#N canvas 0 22 512 313 10;
#X obj 165 38 inlet;
#X text 207 37 bang;
#X obj 165 70 t b b;
#X obj 314 38 inlet;
#X text 353 39 reset;
#X obj 159 111 timer;
#X obj 201 110 int;
#X obj 243 135 + 1;
#X obj 201 134 t f f;
#X obj 313 61 t b b;
#X msg 340 85 0;
#X obj 153 194 tabwrite \$1;
#X connect 0 0 2 0;
#X connect 2 0 5 1;
#X connect 2 1 6 0;
#X connect 3 0 9 0;
#X connect 5 0 11 0;
#X connect 6 0 8 0;
#X connect 7 0 6 1;
#X connect 8 0 11 1;
#X connect 8 1 7 0;
#X connect 9 0 5 0;
#X connect 9 1 10 0;
#X connect 10 0 6 1;
