#N canvas 0 82 450 300 10;
#X obj 99 22 inlet;
#X obj 99 97 route 0 1;
#X obj 180 45 tgl 15 0 empty empty empty 17 7 0 10 -262144 -1 -1 0
1;
#X obj 99 127 outlet;
#X obj 180 128 outlet;
#X obj 180 23 r isrhythm;
#X obj 99 68 list prepend 2;
#X connect 0 0 6 0;
#X connect 1 0 3 0;
#X connect 1 1 4 0;
#X connect 2 0 6 1;
#X connect 5 0 2 0;
#X connect 6 0 1 0;
