#N canvas 826 220 202 162 10;
#X obj 118 44 t f f;
#X obj 118 71 -;
#X obj 118 96 sel -1;
#X msg 118 121 \; pd quit;
#X obj 25 19 netreceive 11000;
#X connect 0 0 1 1;
#X connect 0 1 1 0;
#X connect 1 0 2 0;
#X connect 2 0 3 0;
#X connect 4 1 0 0;
