#N canvas 286 376 642 459 10;
#X obj 252 158 metro 1000;
#X msg 306 120 0;
#X msg 254 125 1;
#X obj 103 203 - 4000;
#X obj 184 265 list prepend;
#X msg 260 236 list;
#X obj 185 296 t l l;
#X obj 166 328 list;
#X obj 246 13 inlet;
#X obj 388 7 inlet;
#X obj 183 146 *;
#X obj 168 357 outlet;
#X obj 449 373 outlet;
#X text 15 10 left inlet: countin;
#X text 26 26 middle inlet: tempo (ms);
#X obj 304 15 inlet;
#X obj 301 43 t f f, f 6;
#X obj 328 202 int;
#X obj 357 203 + 1;
#X obj 384 204 t f f;
#X obj 103 180 timer;
#X obj 374 229 >= 99;
#X text 16 43 right inlet: number of note events;
#X msg 340 169 0;
#X obj 376 257 sel 1;
#X obj 462 21 inlet;
#X text 503 22 halt metronome;
#X obj 367 319 int;
#X obj 395 319 + 1;
#X obj 422 320 % 4;
#X obj 450 320 t f f;
#X obj 450 347 + 1;
#X obj 246 37 unpack;
#X msg 382 285 -1;
#X obj 316 233 t b b b;
#X obj 107 126 spigot 0;
#X msg 345 89 1;
#X msg 185 85 0;
#X obj 109 150 t b b b;
#X obj 174 203 s rhy-count-label;
#X obj 35 70 r user-rhy;
#X msg 16 315 \; metro-state 1;
#X obj 261 65 t b b b f b b b b;
#X obj 74 241 delay;
#X msg 29 366 \; metro-state 2;
#X connect 0 0 27 0;
#X connect 1 0 0 0;
#X connect 2 0 0 0;
#X connect 3 0 4 0;
#X connect 4 0 6 0;
#X connect 5 0 4 1;
#X connect 6 0 7 1;
#X connect 6 1 4 1;
#X connect 7 0 11 0;
#X connect 8 0 32 0;
#X connect 9 0 21 1;
#X connect 10 0 3 1;
#X connect 10 0 43 0;
#X connect 15 0 16 0;
#X connect 16 0 10 1;
#X connect 16 1 0 1;
#X connect 17 0 18 0;
#X connect 18 0 19 0;
#X connect 19 0 21 0;
#X connect 19 1 17 1;
#X connect 20 0 3 0;
#X connect 21 0 24 0;
#X connect 23 0 17 1;
#X connect 24 0 34 0;
#X connect 25 0 1 0;
#X connect 27 0 28 0;
#X connect 28 0 29 0;
#X connect 29 0 30 0;
#X connect 30 0 31 0;
#X connect 30 1 27 1;
#X connect 31 0 12 0;
#X connect 32 0 42 0;
#X connect 32 1 29 1;
#X connect 33 0 27 1;
#X connect 34 0 7 0;
#X connect 34 1 1 0;
#X connect 34 2 37 0;
#X connect 35 0 38 0;
#X connect 36 0 35 1;
#X connect 37 0 35 1;
#X connect 38 0 17 0;
#X connect 38 1 20 1;
#X connect 38 2 39 0;
#X connect 40 0 35 0;
#X connect 42 0 20 0;
#X connect 42 1 2 0;
#X connect 42 2 5 0;
#X connect 42 3 10 0;
#X connect 42 4 23 0;
#X connect 42 5 33 0;
#X connect 42 6 36 0;
#X connect 42 7 41 0;
#X connect 43 0 44 0;
